<svg width="32" height="32" viewBox="0 0 32 32" fill="none" xmlns="http://www.w3.org/2000/svg">
<path d="M8.43371 13.3186V17.7762H9.39847V13.3186H8.43371ZM4 17.7762H4.89032L5.13448 16.9335H6.66797L6.90022 17.7762H8.04066L6.74241 13.4705H5.44713L4 17.7762ZM5.33696 16.2308L5.91165 14.2477H5.93547L6.4774 16.2308H5.33696ZM13.195 17.8179C14.0555 17.8179 14.8327 17.1836 14.8327 16.0521C14.8327 15.0397 14.2699 14.4352 13.5761 14.4352C13.2218 14.4352 12.9478 14.5692 12.6352 14.8253V14.5037H11.6704V18.8154H12.6352V17.7464C12.8168 17.794 13.0044 17.8208 13.195 17.8179ZM17.1225 17.7762H18.0872L17.9711 16.9573V15.5906C17.9711 14.8462 17.5304 14.4352 16.7562 14.4352C16.2619 14.4352 15.9195 14.5216 15.2972 14.7092L15.4669 15.4596C16.0356 15.2035 16.2858 15.0933 16.5478 15.0933C16.8664 15.0933 17.0063 15.3196 17.0063 15.668V15.6918C15.9016 15.9002 15.5592 16.0164 15.3448 16.2278C15.187 16.3856 15.1185 16.6119 15.1185 16.8739C15.1185 17.5022 15.6069 17.8387 16.0654 17.8387C16.4078 17.8387 16.6818 17.7107 17.054 17.4308L17.1225 17.7762ZM10.0565 14.5037V17.7762H11.0213V14.5037H10.0565ZM21.4073 14.5097L21.4133 14.5037H20.5051L19.9304 16.4928H19.9006L19.2396 14.5037H18.1587L19.4599 17.7881L18.918 18.7886V18.8124H19.7666L21.4073 14.5097ZM13.2069 15.1886C13.5672 15.1886 13.853 15.4744 13.853 16.0849C13.853 16.865 13.4332 17.2134 12.9627 17.2134C12.8496 17.2134 12.7394 17.1985 12.6322 17.1657V15.394C12.8347 15.2541 13.0014 15.1856 13.2069 15.1886ZM16.0535 16.7816C16.0535 16.6893 16.0714 16.597 16.1458 16.5256C16.2619 16.4094 16.4882 16.3231 17.0063 16.201V16.9811C16.7503 17.1211 16.6044 17.1777 16.4317 17.1777C16.1994 17.1777 16.0535 17.0258 16.0535 16.7816Z" fill="#3E3A39"/>
<path d="M9.98506 13.7147C9.98506 14.0333 10.2173 14.2447 10.5419 14.2447C10.8664 14.2447 11.0987 14.0303 11.0987 13.7147C11.0957 13.405 10.8635 13.1846 10.5389 13.1846C10.2143 13.1846 9.98506 13.405 9.98506 13.7147Z" fill="#1677FF"/>
<path d="M28 16.6032H25.8085C25.207 16.6032 24.7157 16.1148 24.7157 15.5104H27.47C27.7618 15.5104 27.997 15.7456 27.997 16.0374V16.6032H28Z" fill="#1677FF"/>
<path d="M22.5271 15.5104H24.1856V16.6032H23.0541C22.7623 16.6032 22.5271 16.3679 22.5271 16.0761V15.5104Z" fill="#00B6FF"/>
<path d="M25.8085 13.8459V16.6002C25.207 16.6002 24.7157 16.1119 24.7157 15.5104V13.3188H25.2814C25.5732 13.3188 25.8085 13.5571 25.8085 13.8459Z" fill="#1677FF"/>
<path d="M25.8085 17.1362V18.7918H25.2427C24.9509 18.7918 24.7157 18.5565 24.7157 18.2647V17.1362H25.8085Z" fill="#00B6FF"/>
</svg>
