<svg width="32" height="32" viewBox="0 0 32 32" fill="none" xmlns="http://www.w3.org/2000/svg">
<g clip-path="url(#clip0_1044_3726)">
<path d="M7.8 5.2H26.2C26.85 5.2 27.4 5.75 27.4 6.4C27.4 7.1 26.85 7.6 26.2 7.6H7.8C6.65 7.6 5.8 8.5 5.8 9.6V23.2C5.8 24.35 6.65 25.2 7.8 25.2H24.6C25.7 25.2 26.6 24.35 26.6 23.2V14.4C26.6 13.3 25.7 12.4 24.6 12.4H9.4C8.7 12.4 8.2 11.9 8.2 11.2C8.2 10.55 8.7 10 9.4 10H24.6C27 10 29 12 29 14.4V23.2C29 25.65 27 27.6 24.6 27.6H7.8C5.35 27.6 3.4 25.65 3.4 23.2V9.6C3.4 7.2 5.35 5.2 7.8 5.2ZM22.6 20.4C21.7 20.4 21 19.7 21 18.8C21 17.95 21.7 17.2 22.6 17.2C23.45 17.2 24.2 17.95 24.2 18.8C24.2 19.7 23.45 20.4 22.6 20.4Z" fill="#0A101A"/>
</g>
<defs>
<clipPath id="clip0_1044_3726">
<rect width="32" height="32" fill="white"/>
</clipPath>
</defs>
</svg>
