<svg width="32" height="32" viewBox="0 0 32 32" fill="none" xmlns="http://www.w3.org/2000/svg">
<g clip-path="url(#clip0_1044_3694)">
<path d="M12.4 4.8V6.8H19.6V4.8C19.6 4.15 20.1 3.6 20.8 3.6C21.45 3.6 22 4.15 22 4.8V6.8H24C25.75 6.8 27.2 8.25 27.2 10V10.8V13.2V26C27.2 27.8 25.75 29.2 24 29.2H8C6.2 29.2 4.8 27.8 4.8 26V13.2V10.8V10C4.8 8.25 6.2 6.8 8 6.8H10V4.8C10 4.15 10.5 3.6 11.2 3.6C11.85 3.6 12.4 4.15 12.4 4.8ZM7.2 13.2V26C7.2 26.45 7.55 26.8 8 26.8H24C24.4 26.8 24.8 26.45 24.8 26V13.2H7.2Z" fill="#0A101A"/>
</g>
<defs>
<clipPath id="clip0_1044_3694">
<rect width="32" height="32" fill="white"/>
</clipPath>
</defs>
</svg>
