<svg width="32" height="32" viewBox="0 0 32 32" fill="none" xmlns="http://www.w3.org/2000/svg">
<g clip-path="url(#clip0_1044_3718)">
<path d="M16.55 3.75L27.9 10.05C28.45 10.35 28.8 10.9 28.8 11.5C28.8 12.45 28 13.2 27.1 13.2H4.89999C3.94999 13.2 3.19999 12.45 3.19999 11.5C3.19999 10.9 3.49999 10.35 4.04999 10.05L15.4 3.75C15.75 3.55 16.2 3.55 16.55 3.75ZM14.6 10.8C14.45 10.6 14.4 10.3 14.4 10C14.4 9.15 15.1 8.4 16 8.4C16.85 8.4 17.6 9.15 17.6 10C17.6 10.3 17.5 10.6 17.35 10.8H24.35L16 6.2L7.59999 10.8H14.6ZM6.39999 14.8H8.79999V22.8H12V14.8H14.4V22.8H17.6V14.8H20V22.8H23.2V14.8H25.6V22.8H26C26.65 22.8 27.2 23.35 27.2 24C27.2 24.7 26.65 25.2 26 25.2H6.39999C5.69999 25.2 5.19999 24.7 5.19999 24C5.19999 23.35 5.69999 22.8 6.39999 22.8V14.8ZM4.79999 26.8H27.6C28.25 26.8 28.8 27.35 28.8 28C28.8 28.7 28.25 29.2 27.6 29.2H4.79999C4.09999 29.2 3.59999 28.7 3.59999 28C3.59999 27.35 4.09999 26.8 4.79999 26.8Z" fill="#0A101A"/>
</g>
<defs>
<clipPath id="clip0_1044_3718">
<rect width="32" height="32" fill="white"/>
</clipPath>
</defs>
</svg>
