<svg width="32" height="32" viewBox="0 0 32 32" fill="none" xmlns="http://www.w3.org/2000/svg">
<path d="M23 3.99997H8.99995C6.23853 3.99997 3.99995 6.23855 3.99995 8.99997V23C3.99995 25.7614 6.23853 28 8.99995 28H23C25.7614 28 28 25.7614 28 23V8.99997C28 6.23855 25.7614 3.99997 23 3.99997Z" fill="#2DB356"/>
<path d="M24.9999 16.0001C24.9999 20.9707 20.9705 25.0001 15.9999 25.0001C11.0294 25.0001 6.99994 20.9707 6.99994 16.0001C6.99994 11.0295 11.0294 7.0001 15.9999 7.0001C20.9705 7.0001 24.9999 11.0295 24.9999 16.0001Z" fill="white"/>
<path fill-rule="evenodd" clip-rule="evenodd" d="M15.9997 23.5638C11.83 23.5638 8.43608 20.1806 8.43608 16.0003C8.43608 11.8187 11.83 8.43643 15.9997 8.43643C20.1703 8.43643 23.5638 11.8187 23.5638 16.0003C23.5638 20.1806 20.1703 23.5638 15.9997 23.5638ZM15.9999 7.0001C11.0321 7.0001 6.99994 11.032 6.99994 16.0001C6.99994 20.9677 11.0321 25.0001 15.9999 25.0001C20.9687 25.0001 24.9999 20.9677 24.9999 16.0001C24.9999 11.032 20.9687 7.0001 15.9999 7.0001Z" fill="#EB1E2F"/>
<path fill-rule="evenodd" clip-rule="evenodd" d="M20.1953 13.8042C20.1691 14.0864 19.8529 14.3773 19.6985 14.5056C19.3479 14.7878 17.0129 16.2082 16.756 16.5415C16.4909 16.8669 16.4481 17.3461 16.4481 17.7222L16.4399 20.4599L16.8075 20.374V19.7497C16.8075 19.5015 16.944 19.1254 17.2266 18.8261C17.7142 18.3213 18.8263 17.6966 19.5533 17.1662C20.1608 16.7214 20.2036 16.1139 20.2036 15.5835V13.7103L20.1953 13.8042Z" fill="#2DB356"/>
<path fill-rule="evenodd" clip-rule="evenodd" d="M16.4485 16.3699C16.7049 16.0445 19.1093 14.5818 19.4512 14.3C19.8014 14.0175 20.1957 13.5894 20.1957 13.0511V9.97959C20.1957 10.416 19.9558 10.741 19.6479 11.1518C19.2885 11.6134 17.6718 12.4863 16.8763 13.0511C16.0804 13.6066 15.7983 14.1713 15.7983 14.8555V20.4593H16.1576V17.5338C16.1576 17.1652 16.1833 16.6953 16.4485 16.3699Z" fill="#2DB356"/>
<path fill-rule="evenodd" clip-rule="evenodd" d="M14.6259 13.1964C13.8902 12.6401 12.393 11.4339 12.222 11.1945C12.0511 10.9551 11.6577 10.5275 11.6577 10.005V12.8543C11.6577 13.2648 11.8544 14.0001 12.5644 14.5137C13.2744 15.0357 14.2753 15.7887 14.5832 16.0881C14.8828 16.3874 15.1567 16.935 15.1567 17.7131V20.3737L15.516 20.4592V14.9846C15.516 14.0945 15.3534 13.7612 14.6259 13.1964Z" fill="#2DB356"/>
<path fill-rule="evenodd" clip-rule="evenodd" d="M17.4407 22.5292C17.0046 22.7262 16.5506 22.9401 15.9435 22.9401C15.4128 22.9401 15.0111 22.7514 14.5833 22.5552C14.1471 22.3497 13.6936 22.1443 13.0778 22.1443C12.66 22.1443 12.3054 22.262 11.9683 22.3996C12.0481 22.4494 12.1283 22.4983 12.2099 22.5455C12.4855 22.4437 12.7624 22.3665 13.0778 22.3665C13.6425 22.3665 14.0529 22.5552 14.489 22.7606C14.9169 22.9573 15.3617 23.1627 15.9435 23.1627C16.6021 23.1627 17.0731 22.9489 17.5345 22.7342C17.954 22.5468 18.3387 22.3665 18.835 22.3665C19.207 22.3665 19.4992 22.4467 19.7657 22.56C19.8429 22.5151 19.9201 22.4697 19.9964 22.4216C19.678 22.2647 19.3252 22.1359 18.835 22.1359C18.2959 22.1359 17.8598 22.3326 17.4407 22.5292ZM18.835 21.7083C18.2959 21.7083 17.8598 21.9049 17.4407 22.1015C17.0046 22.2982 16.5506 22.5124 15.9435 22.5124C15.4128 22.5124 15.0111 22.3242 14.5833 22.1271C14.1471 21.9221 13.6936 21.7083 13.0778 21.7083C12.5383 21.7083 12.1109 21.9049 11.6918 22.0932C11.6551 22.1112 11.6189 22.1249 11.5854 22.1408C11.6569 22.1919 11.7293 22.2426 11.8021 22.2907C12.2073 22.1139 12.5963 21.9397 13.0778 21.9397C13.6425 21.9397 14.0529 22.1271 14.489 22.3326C14.9169 22.5292 15.3617 22.7342 15.9435 22.7342C16.6021 22.7342 17.0731 22.5124 17.5345 22.307C17.954 22.1099 18.3387 21.9305 18.835 21.9305C19.391 21.9305 19.75 22.1187 20.1263 22.307C20.1355 22.3114 20.1447 22.3162 20.1534 22.3202C20.2253 22.273 20.2964 22.2245 20.3666 22.1747C20.3217 22.1531 20.2729 22.1306 20.2293 22.1015C19.8446 21.9137 19.4421 21.7083 18.835 21.7083ZM18.835 21.2802C18.2959 21.2802 17.8598 21.4773 17.4407 21.6655C17.0046 21.871 16.5506 22.076 15.9435 22.076C15.4128 22.076 15.0111 21.8965 14.5833 21.6995C14.1471 21.494 13.6936 21.2802 13.0778 21.2802C12.5383 21.2802 12.1109 21.4773 11.6918 21.6655C11.5352 21.7356 11.3856 21.8062 11.2238 21.8635C11.2918 21.919 11.3603 21.9728 11.431 22.0262C11.5479 21.9781 11.67 21.9248 11.786 21.871C12.1964 21.6823 12.5902 21.5112 13.0778 21.5112C13.6425 21.5112 14.0529 21.6995 14.489 21.9049C14.9169 22.1015 15.3617 22.307 15.9435 22.307C16.6021 22.307 17.0731 22.0848 17.5345 21.8798C17.954 21.6823 18.3387 21.5028 18.835 21.5028C19.391 21.5028 19.75 21.6823 20.1263 21.8798C20.2572 21.9442 20.3789 22.009 20.5154 22.0672C20.5864 22.0138 20.6567 21.9596 20.7256 21.904C20.5476 21.837 20.3845 21.7555 20.2293 21.6739C19.8446 21.4773 19.4421 21.2802 18.835 21.2802ZM18.835 20.8442C18.2959 20.8442 17.8598 21.0496 17.4407 21.2379C17.0046 21.4429 16.5506 21.6479 15.9435 21.6479C15.4128 21.6479 15.0111 21.4601 14.5833 21.263C14.1471 21.0664 13.6936 20.8526 13.0778 20.8526C12.5383 20.8526 12.1109 21.0496 11.6918 21.2379C11.431 21.3521 11.1628 21.4733 10.8644 21.5509C10.9303 21.6122 10.997 21.6721 11.0646 21.7303C11.315 21.6541 11.5505 21.5487 11.786 21.4429C12.1964 21.2546 12.5902 21.0752 13.0778 21.0752C13.6425 21.0752 14.0529 21.2718 14.489 21.4685C14.9169 21.6739 15.3617 21.8798 15.9435 21.8798C16.6021 21.8798 17.0731 21.6567 17.5345 21.4429C17.954 21.2546 18.3387 21.0752 18.835 21.0752C19.391 21.0752 19.75 21.2546 20.1263 21.4517C20.3597 21.5677 20.6004 21.684 20.8887 21.7691C20.9576 21.7109 21.0256 21.6514 21.0923 21.591C20.7544 21.513 20.4879 21.3798 20.2293 21.2463C19.8446 21.0496 19.4421 20.8442 18.835 20.8442ZM18.835 20.4166C18.2959 20.4166 17.8598 20.6132 17.4407 20.8103C17.0046 21.0153 16.5506 21.2207 15.9435 21.2207C15.4128 21.2207 15.0111 21.0324 14.5833 20.8354C14.1471 20.6299 13.6936 20.4249 13.0778 20.4249C12.5383 20.4249 12.1109 20.622 11.6918 20.8103C11.3276 20.9672 10.956 21.1321 10.499 21.189C10.564 21.2582 10.6298 21.3256 10.6974 21.3918C11.1113 21.319 11.4484 21.1634 11.786 21.0153C12.1964 20.827 12.5902 20.6476 13.0778 20.6476C13.6425 20.6476 14.0529 20.8442 14.489 21.0413C14.9169 21.2379 15.3617 21.4517 15.9435 21.4517C16.6021 21.4517 17.0731 21.2291 17.5345 21.0153C17.954 20.827 18.3387 20.6476 18.835 20.6476C19.391 20.6476 19.75 20.827 20.1263 21.0241C20.4556 21.1841 20.7932 21.3609 21.2698 21.4235C21.3414 21.3538 21.4116 21.2833 21.4805 21.2106C20.941 21.1744 20.5856 20.9963 20.2293 20.8182C19.8446 20.622 19.4421 20.4166 18.835 20.4166ZM20.2293 20.3906C19.8446 20.1939 19.4421 19.9885 18.835 19.9885C18.2959 19.9885 17.8598 20.1855 17.4407 20.3817C17.0046 20.5792 16.5506 20.7926 15.9435 20.7926C15.4128 20.7926 15.0111 20.6044 14.5833 20.4077C14.1471 20.2027 13.6936 19.9885 13.0778 19.9885C12.5383 19.9885 12.1109 20.1855 11.6918 20.3734C11.2469 20.5792 10.7934 20.7842 10.1858 20.7842C10.1701 20.7842 10.1558 20.7842 10.1418 20.7834C10.2033 20.8583 10.2661 20.9319 10.3306 21.0047C10.9129 20.9778 11.3533 20.779 11.786 20.5876C12.1964 20.3989 12.5902 20.2195 13.0778 20.2195C13.6425 20.2195 14.0529 20.4077 14.489 20.6132C14.9169 20.8103 15.3617 21.0153 15.9435 21.0153C16.6021 21.0153 17.0731 20.8014 17.5345 20.5876C17.954 20.3989 18.3387 20.2195 18.835 20.2195C19.391 20.2195 19.75 20.3989 20.1263 20.5876C20.5411 20.7992 20.9646 21.0104 21.6523 21.0232C21.7217 20.9456 21.7897 20.8667 21.8551 20.786C21.801 20.7926 21.7461 20.7926 21.6833 20.7926C21.0335 20.7926 20.6231 20.5876 20.2293 20.3906Z" fill="#98867C"/>
</svg>
