<svg width="32" height="32" viewBox="0 0 32 32" fill="none" xmlns="http://www.w3.org/2000/svg">
<path d="M4 20.0207V11.9793H28V20.0207H4ZM27.741 12.2322H4.26184V19.7636H27.741V12.2322Z" fill="#003D69"/>
<path d="M18.4798 14.1691V17.7907H5.40348V14.1691H18.4798ZM12.0307 15.3189H11.6995V17.1975H12.035C12.035 16.9526 12.033 16.7143 12.035 16.4759C12.0368 16.3172 12.036 16.1575 12.053 16.0002C12.084 15.711 12.315 15.5346 12.6055 15.5656C12.7418 15.5801 12.8332 15.6645 12.8515 15.8004C12.862 15.8792 12.8675 15.9586 12.868 16.0381C12.8695 16.3973 12.8726 17.2036 12.8726 17.2036H13.2187C13.2157 16.8498 13.2154 16.4073 13.2187 16.0535C13.2211 15.7307 13.4329 15.5404 13.7547 15.5666C13.8951 15.5781 13.9997 15.6604 14.0223 15.7808C14.032 15.832 14.037 15.8839 14.0375 15.9359C14.0386 16.3198 14.0375 17.1579 14.0375 17.1958H14.3889C14.3889 16.7596 14.3927 16.2921 14.387 15.8561C14.385 15.7014 14.3509 15.549 14.2324 15.4346C14.0376 15.2466 13.8002 15.2443 13.5553 15.2921C13.3905 15.3242 13.2661 15.4251 13.1549 15.5572C13.0329 15.3323 12.8378 15.2644 12.6062 15.2669C12.3717 15.2693 12.1914 15.3806 12.0294 15.5729L12.0307 15.3189ZM6.05471 15.1212V17.1975H6.43634V16.1099C6.53356 16.1099 6.6176 16.1112 6.70329 16.1099C6.96348 16.1053 7.22582 16.1186 7.48354 16.0903C8.06819 16.0262 8.23973 15.3374 7.98893 14.9429C7.83074 14.6941 7.58076 14.6133 7.30211 14.6109C6.9152 14.6066 6.52763 14.6109 6.14138 14.6109C6.11469 14.6109 6.08799 14.6092 6.05652 14.6109V14.922H6.15802C6.53109 14.9228 6.90433 14.9195 7.2774 14.9268C7.44564 14.9299 7.59872 14.9839 7.67617 15.1525C7.81442 15.4534 7.65458 15.7584 7.32584 15.7899C7.07026 15.8144 6.81122 15.8031 6.55367 15.8075C6.51626 15.8075 6.47886 15.8075 6.43189 15.8075V15.1222L6.05471 15.1212ZM15.1911 17.0075C15.2053 17.0184 15.2187 17.0301 15.2315 17.0426C15.5202 17.401 16.2833 17.3438 16.5155 16.7965C16.6395 16.5037 16.6583 16.2002 16.5883 15.8947C16.4594 15.3326 15.8797 15.1342 15.4525 15.3453C15.3593 15.3913 15.2799 15.4653 15.1921 15.528C15.1893 15.4638 15.1863 15.3944 15.1829 15.3176C15.0988 15.3176 15.022 15.3217 14.9461 15.3163C14.8731 15.3112 14.8472 15.3328 14.848 15.4107C14.8512 16.0994 14.8498 16.7878 14.85 17.4763V17.5712H15.1911V17.0075ZM10.3386 17.2698C10.388 17.267 10.4374 17.2662 10.4869 17.2609C10.765 17.2306 10.9868 17.1103 11.1295 16.8611C11.2673 16.6215 11.3006 16.3627 11.281 16.0924C11.246 15.6124 10.9372 15.2998 10.4571 15.2603C10.0085 15.2234 9.65818 15.4325 9.50658 15.8342C9.42683 16.046 9.4148 16.2656 9.44265 16.4901C9.50147 16.9719 9.85329 17.2787 10.3386 17.2698ZM17.0698 15.5793C17.0698 15.6973 17.0698 15.8037 17.0698 15.91C17.0706 16.2252 17.067 16.5406 17.0739 16.8557C17.0789 17.078 17.169 17.1983 17.354 17.2212C17.4664 17.2352 17.5829 17.2189 17.6971 17.2115C17.7073 17.208 17.7164 17.202 17.7237 17.194C17.731 17.1861 17.7361 17.1765 17.7387 17.166C17.7433 17.0956 17.7406 17.0249 17.7406 16.948C17.6892 16.948 17.646 16.948 17.6029 16.948C17.4546 16.9465 17.4216 16.9117 17.4216 16.7616C17.4216 16.3998 17.4216 16.0379 17.4216 15.676V15.5791H17.7367V15.3125H17.4195V14.7926H17.0678V15.3148H16.8122V15.5785L17.0698 15.5793ZM8.30762 15.3183V17.1968H8.64394C8.64394 17.1599 8.64394 17.1309 8.64394 17.1002C8.64394 16.7687 8.64279 16.4372 8.6451 16.1056C8.64691 15.8626 8.80823 15.6653 9.04371 15.6215C9.11769 15.6076 9.19531 15.6129 9.28165 15.6088C9.28165 15.5206 9.28281 15.2677 9.28281 15.2677C9.13285 15.2611 8.93907 15.3199 8.81515 15.4038C8.74841 15.449 8.66487 15.5122 8.62582 15.563V15.3175L8.30762 15.3183Z" fill="#003D69"/>
<path d="M18.7904 17.7902V14.1632C18.7904 14.1632 19.9824 14.1528 20.561 14.1718C20.9314 14.1841 21.2608 14.3201 21.4619 14.6592C21.6074 14.9037 21.6267 15.1784 21.6077 15.4556C21.6 15.5512 21.5857 15.6461 21.565 15.7397C21.4927 16.0836 21.2777 16.3039 20.9473 16.3988C20.7732 16.4462 20.5944 16.4739 20.4142 16.4812C20.1597 16.4947 19.5604 16.4842 19.5604 16.4842C19.5631 16.8632 19.5604 17.4101 19.5634 17.7888C19.5634 17.7902 18.8207 17.7917 18.7904 17.7902ZM19.5667 15.8615C19.8373 15.8615 20.0978 15.8692 20.3577 15.8572C20.4516 15.8529 20.5509 15.8143 20.6342 15.7675C20.7953 15.6767 20.8334 15.5131 20.8355 15.3434C20.8387 15.0983 20.7877 14.8929 20.4773 14.8141C20.4161 14.7993 20.3535 14.7917 20.2906 14.7913C20.0764 14.7885 19.8631 14.79 19.6492 14.7904C19.623 14.7904 19.5968 14.7937 19.5668 14.7958L19.5667 15.8615Z" fill="#003D69"/>
<path d="M24.4458 17.3293H23.6421C23.6304 17.2598 23.5785 17.0327 23.5785 17.0327C23.4986 17.0958 23.4277 17.1586 23.3505 17.2118C23.0155 17.4425 22.6529 17.4814 22.2794 17.3325C22.0279 17.2321 21.875 17.0358 21.8419 16.7613C21.8063 16.4665 21.8562 16.1969 22.0929 15.9908C22.2247 15.8755 22.384 15.814 22.5521 15.7828C22.7727 15.742 22.997 15.7179 23.2178 15.6807C23.2956 15.6667 23.3716 15.6439 23.4442 15.6126C23.5207 15.5807 23.5622 15.5174 23.562 15.4314C23.562 15.3374 23.5362 15.2501 23.4467 15.2106C23.2404 15.1184 23.0258 15.1102 22.8161 15.1962C22.6831 15.2508 22.6462 15.3808 22.6147 15.5078H21.9249C21.9347 15.0578 22.1874 14.7389 22.6322 14.6328C23.0306 14.5379 23.4267 14.5565 23.8122 14.7035C24.1417 14.8296 24.2797 15.0412 24.2816 15.4249C24.2834 15.8039 24.2805 16.1829 24.2828 16.5606C24.2838 16.7277 24.2915 17.0181 24.3007 17.0612C24.3047 17.0879 24.3139 17.1134 24.3278 17.1365C24.3417 17.1595 24.3601 17.1796 24.3818 17.1955C24.4018 17.2105 24.4234 17.2231 24.4462 17.2333L24.4458 17.3293ZM23.5574 16.044C23.4586 16.0742 23.3668 16.107 23.2725 16.13C23.1135 16.1689 22.9494 16.191 22.7937 16.2399C22.608 16.2983 22.5259 16.4527 22.5579 16.6389C22.5867 16.8065 22.7048 16.8989 22.9003 16.9045C22.9413 16.9069 22.9825 16.9051 23.0232 16.8991C23.2303 16.862 23.4187 16.7897 23.5065 16.5779C23.5774 16.4064 23.5638 16.2253 23.5574 16.044Z" fill="#003D69"/>
<path d="M25.624 15.5567C25.6617 15.4209 25.889 14.5884 25.889 14.5884C26.1197 14.5837 26.3981 14.5884 26.6435 14.5884C26.6162 14.6939 26.0289 16.8529 25.7744 17.7932L25.0181 17.7905C25.0647 17.616 25.2539 16.9529 25.2539 16.9529L24.511 14.5884C24.7225 14.5884 25.0889 14.5926 25.3002 14.5884L25.624 15.5567Z" fill="#003D69"/>
<path d="M16.2857 16.2811C16.2857 16.4574 16.2633 16.5612 16.2137 16.686C16.1178 16.9264 15.9006 17.0035 15.6338 16.9775C15.4223 16.9569 15.2651 16.8084 15.209 16.57C15.1574 16.3501 15.1685 16.1202 15.241 15.9064C15.3199 15.6653 15.4943 15.545 15.7416 15.5503C15.9832 15.5556 16.17 15.6966 16.2328 15.9189C16.2672 16.0366 16.285 16.1585 16.2857 16.2811Z" fill="#003D69"/>
<path d="M10.9392 16.2207C10.9392 16.4004 10.9227 16.5443 10.8629 16.6941C10.7667 16.9358 10.551 17.0024 10.3181 16.989C10.0503 16.9737 9.9017 16.8504 9.82623 16.5936C9.74845 16.3286 9.76444 16.0682 9.88967 15.8191C9.99464 15.6105 10.1729 15.5211 10.4284 15.5442C10.6617 15.5653 10.8403 15.6871 10.9024 15.9067C10.9313 16.0082 10.9392 16.0979 10.9392 16.2207Z" fill="#003D69"/>
<path d="M19.6232 12.9911C19.6232 13.0971 19.6232 13.4854 19.6232 13.4854L19.4725 12.9911H19.3107L19.1599 13.4854C19.1599 13.4854 19.1591 13.2482 19.1599 13.1422C19.1599 13.0496 19.0663 12.9746 18.9508 12.9746C18.8353 12.9746 18.7417 13.0496 18.7417 13.1422C18.7417 13.2348 18.8353 13.31 18.9508 13.31C18.9554 13.31 18.9599 13.31 18.9645 13.31C18.9645 13.4843 18.9645 13.7321 18.9645 13.7321C18.9645 13.7591 18.9752 13.785 18.9943 13.8041C19.0134 13.8232 19.0393 13.834 19.0663 13.834H19.1897L19.383 13.2981C19.4473 13.4757 19.5764 13.834 19.5764 13.834H19.7183C19.7317 13.834 19.7449 13.8314 19.7573 13.8263C19.7696 13.8211 19.7809 13.8136 19.7903 13.8042C19.7998 13.7947 19.8073 13.7835 19.8124 13.7711C19.8175 13.7588 19.8201 13.7455 19.8201 13.7321C19.8201 13.7321 19.8201 12.9916 19.8201 12.9916L19.6232 12.9911ZM18.9454 13.2002C18.9345 13.1986 18.9243 13.1939 18.916 13.1866C18.9077 13.1794 18.9016 13.1699 18.8986 13.1593C18.8955 13.1488 18.8955 13.1375 18.8986 13.127C18.9018 13.1164 18.9079 13.107 18.9162 13.0998C18.9246 13.0926 18.9348 13.0879 18.9457 13.0864C18.9566 13.0848 18.9677 13.0864 18.9777 13.091C18.9878 13.0956 18.9962 13.103 19.0022 13.1123C19.0081 13.1215 19.0113 13.1323 19.0113 13.1434C19.01 13.1596 19.0024 13.1747 18.99 13.1854C18.9777 13.196 18.9616 13.2013 18.9454 13.2002Z" fill="#003D69"/>
<path d="M25.3388 12.9911C25.3396 13.0971 25.3388 13.4854 25.3388 13.4854L25.188 12.9911H25.0262L24.8754 13.4854C24.8754 13.4854 24.8754 13.2482 24.8754 13.1422C24.8754 13.0496 24.7818 12.9746 24.6663 12.9746C24.5508 12.9746 24.4572 13.0496 24.4572 13.1422C24.4572 13.2348 24.5508 13.31 24.6663 13.31C24.6709 13.31 24.6753 13.31 24.6799 13.31C24.6799 13.4843 24.6799 13.7321 24.6799 13.7321C24.6799 13.7455 24.6826 13.7588 24.6877 13.7711C24.6928 13.7835 24.7004 13.7947 24.7098 13.8042C24.7193 13.8137 24.7305 13.8211 24.7429 13.8263C24.7553 13.8314 24.7686 13.834 24.7819 13.834H24.9052L25.098 13.2976L25.2915 13.8335H25.4332C25.4466 13.8335 25.4598 13.8309 25.4722 13.8258C25.4845 13.8206 25.4958 13.8131 25.5052 13.8037C25.5147 13.7942 25.5222 13.783 25.5273 13.7706C25.5324 13.7583 25.535 13.745 25.535 13.7316C25.535 13.7316 25.535 12.9911 25.535 12.9911H25.3388ZM24.6608 13.2002C24.6499 13.1986 24.6397 13.1939 24.6314 13.1866C24.6231 13.1794 24.6171 13.1699 24.614 13.1593C24.6109 13.1488 24.611 13.1375 24.6141 13.127C24.6172 13.1164 24.6233 13.107 24.6317 13.0998C24.64 13.0926 24.6502 13.0879 24.6612 13.0864C24.6721 13.0848 24.6832 13.0864 24.6932 13.091C24.7032 13.0956 24.7117 13.103 24.7176 13.1123C24.7236 13.1215 24.7267 13.1323 24.7267 13.1434C24.7255 13.1596 24.7178 13.1747 24.7055 13.1854C24.6931 13.196 24.6771 13.2013 24.6608 13.2002Z" fill="#003D69"/>
<path d="M23.1147 12.9949C23.1147 13.0619 23.1147 13.3806 23.1147 13.6062C23.0408 13.5307 22.9464 13.4785 22.8431 13.4561C22.8431 13.3869 22.8431 13.2279 22.8431 13.1463C22.8431 13.0537 22.7495 12.9787 22.634 12.9787C22.5185 12.9787 22.4249 13.0537 22.4249 13.1463C22.4249 13.2389 22.5185 13.3139 22.634 13.3139C22.6386 13.3139 22.6431 13.3139 22.6475 13.3139V13.4472C22.6431 13.4472 22.6386 13.4472 22.6342 13.4472C22.5188 13.4472 22.4249 13.5347 22.4249 13.6428C22.4249 13.7509 22.5185 13.8385 22.6342 13.8385C22.6386 13.8385 22.6429 13.8385 22.6474 13.8385C22.6981 13.8385 22.7469 13.8188 22.7834 13.7836C22.8199 13.7483 22.8413 13.7003 22.8431 13.6495C22.8431 13.6474 22.8431 13.6451 22.8431 13.6428V13.606C23.0005 13.657 23.0812 13.8183 23.0812 13.8389H23.2086C23.2356 13.8389 23.2615 13.8281 23.2806 13.809C23.2997 13.7899 23.3104 13.764 23.3104 13.737V12.9955L23.1147 12.9949ZM22.6184 13.7094C22.611 13.711 22.6034 13.7108 22.5962 13.709C22.5889 13.7072 22.5821 13.7036 22.5765 13.6987C22.5708 13.6938 22.5664 13.6876 22.5635 13.6807C22.5607 13.6738 22.5595 13.6662 22.56 13.6588C22.56 13.6093 22.6062 13.5749 22.6508 13.5749C22.6508 13.5749 22.6523 13.61 22.6523 13.6451C22.6523 13.6802 22.6427 13.7041 22.6184 13.7094ZM22.6289 13.2041C22.618 13.2025 22.6078 13.1978 22.5995 13.1906C22.5912 13.1833 22.5851 13.1739 22.5821 13.1633C22.579 13.1527 22.579 13.1414 22.5822 13.1309C22.5853 13.1203 22.5914 13.1109 22.5997 13.1037C22.6081 13.0965 22.6183 13.0918 22.6292 13.0903C22.6401 13.0888 22.6513 13.0904 22.6613 13.095C22.6713 13.0996 22.6798 13.1069 22.6857 13.1162C22.6917 13.1255 22.6948 13.1363 22.6948 13.1473C22.6936 13.1636 22.686 13.1787 22.6736 13.1893C22.6613 13.2 22.6452 13.2053 22.6289 13.2041Z" fill="#003D69"/>
<path d="M23.9827 13.5139C23.9781 13.5139 23.9737 13.5139 23.9691 13.5139C23.9691 13.3398 23.9691 12.9899 23.9691 12.9899H23.7731C23.7731 12.9899 23.774 13.5751 23.7731 13.681C23.7731 13.7736 23.8667 13.8486 23.9823 13.8486C24.0978 13.8486 24.1914 13.7736 24.1914 13.681C24.1914 13.5884 24.0983 13.5139 23.9827 13.5139ZM23.9877 13.7374C23.9768 13.7358 23.9666 13.7311 23.9583 13.7238C23.95 13.7166 23.9439 13.7071 23.9409 13.6965C23.9378 13.686 23.9378 13.6747 23.941 13.6642C23.9441 13.6536 23.9502 13.6441 23.9585 13.637C23.9669 13.6298 23.9771 13.6251 23.988 13.6236C23.9989 13.622 24.01 13.6236 24.0201 13.6282C24.0301 13.6328 24.0386 13.6402 24.0445 13.6495C24.0505 13.6587 24.0536 13.6695 24.0536 13.6805C24.0531 13.6886 24.0509 13.6966 24.0473 13.7038C24.0437 13.7111 24.0387 13.7176 24.0326 13.723C24.0265 13.7283 24.0193 13.7324 24.0116 13.735C24.0039 13.7376 23.9958 13.738 23.9877 13.7374Z" fill="#003D69"/>
<path d="M21.7677 12.9787H21.6005C21.3594 12.9787 21.2464 13.1352 21.2248 13.2511H21.4131C21.4131 13.2511 21.4596 13.1128 21.6089 13.1128H21.6305C21.7643 13.1128 21.8447 13.1913 21.8447 13.287V13.5976C21.8447 13.6195 21.836 13.6404 21.8206 13.6559C21.8051 13.6713 21.7841 13.68 21.7623 13.68H21.4986C21.4986 13.6523 21.4986 13.621 21.4986 13.5854C21.5033 13.5854 21.5077 13.5854 21.5123 13.5854C21.6277 13.5854 21.7214 13.5105 21.7214 13.4179C21.7214 13.3252 21.6278 13.2501 21.5123 13.2501C21.3968 13.2501 21.3032 13.3252 21.3032 13.4179C21.3032 13.4732 21.3032 13.5853 21.3032 13.6795V13.8369H21.8622C21.9109 13.8369 21.9576 13.8175 21.9921 13.7831C22.0266 13.7486 22.046 13.7019 22.0461 13.6532V13.2567C22.0461 13.2202 22.0388 13.184 22.0249 13.1502C22.0109 13.1165 21.9904 13.0858 21.9645 13.06C21.9387 13.0342 21.908 13.0137 21.8742 12.9998C21.8405 12.9858 21.8043 12.9787 21.7677 12.9787ZM21.5174 13.3628C21.5283 13.3644 21.5385 13.3691 21.5468 13.3764C21.5551 13.3836 21.5612 13.3931 21.5642 13.4036C21.5673 13.4142 21.5673 13.4254 21.5642 13.436C21.5611 13.4466 21.555 13.456 21.5466 13.4632C21.5383 13.4704 21.5281 13.4751 21.5172 13.4766C21.5063 13.4782 21.4952 13.4766 21.4852 13.472C21.4751 13.4675 21.4667 13.4601 21.4607 13.4509C21.4547 13.4416 21.4515 13.4308 21.4515 13.4198C21.4528 13.4036 21.4604 13.3884 21.4728 13.3778C21.4851 13.3671 21.5011 13.3617 21.5174 13.3628Z" fill="#003D69"/>
<path d="M20.5775 12.9774C20.3593 12.9212 20.1588 13.0578 20.1491 13.2755C20.201 13.2755 20.2974 13.277 20.3488 13.2784C20.4312 13.2809 20.5932 13.2807 20.6207 13.3432C20.6358 13.3771 20.6345 13.4389 20.6345 13.5177C20.606 13.5196 20.5777 13.5248 20.5503 13.533C20.4477 13.566 20.3999 13.666 20.4445 13.7527C20.4836 13.8283 20.5879 13.868 20.6879 13.8448C20.7795 13.8235 20.8303 13.7649 20.8329 13.6716C20.8352 13.5976 20.8329 13.5233 20.8329 13.4493C20.8329 13.2806 20.7886 13.2341 20.6286 13.1957C20.5486 13.176 20.4672 13.1629 20.385 13.1567C20.427 13.123 20.4796 13.1054 20.5333 13.1072C20.5839 13.1113 20.6322 13.1361 20.6828 13.1499C20.7777 13.1761 20.8655 13.1405 20.9239 13.051L20.7945 12.9686C20.7166 13.013 20.7166 13.013 20.5775 12.9774ZM20.6983 13.6886C20.7001 13.7019 20.6979 13.7154 20.6918 13.7273C20.6858 13.7393 20.6763 13.7491 20.6645 13.7555C20.6527 13.7619 20.6393 13.7646 20.626 13.7632C20.6127 13.7618 20.6001 13.7563 20.5899 13.7476C20.5798 13.7388 20.5726 13.7272 20.5692 13.7142C20.5658 13.7012 20.5665 13.6876 20.5711 13.675C20.5757 13.6624 20.584 13.6515 20.595 13.6438C20.6059 13.6361 20.619 13.6319 20.6324 13.6317C20.6486 13.6306 20.6647 13.636 20.677 13.6466C20.6893 13.6573 20.697 13.6723 20.6983 13.6886Z" fill="#003D69"/>
<path d="M26.4585 12.9878C26.4585 13.0186 26.4585 13.4121 26.4585 13.582C26.4585 13.6367 26.4468 13.6858 26.3835 13.6891C26.2887 13.6939 26.1937 13.6903 26.0856 13.6903V13.5431C26.0856 13.5219 26.0938 13.5016 26.1086 13.4865C26.1234 13.4713 26.1435 13.4626 26.1647 13.462L26.2985 13.4571V13.3403H26.222C26.1772 13.3403 26.1185 13.3276 26.1067 13.3164C26.2115 13.3164 26.3008 13.2542 26.3008 13.1494C26.3008 13.0568 26.207 12.9817 26.0915 12.9817C26.0341 12.9817 25.9295 13.0025 25.8871 13.1087C25.8679 13.1692 25.8648 13.2337 25.8783 13.2958C25.8854 13.3232 25.8986 13.3486 25.9168 13.3703C25.9351 13.392 25.9579 13.4093 25.9837 13.421C25.9114 13.4838 25.9064 13.5138 25.9061 13.5904C25.9061 13.6573 25.9061 13.7703 25.9061 13.8313C26.1062 13.8313 26.2922 13.8377 26.4774 13.8288C26.5872 13.8234 26.6452 13.7646 26.648 13.6641C26.6541 13.4403 26.6498 13.2162 26.6498 12.9885L26.4585 12.9878ZM26.0261 13.143C26.0242 13.1297 26.0265 13.1162 26.0325 13.1043C26.0385 13.0923 26.0481 13.0825 26.0598 13.0761C26.0716 13.0697 26.0851 13.067 26.0984 13.0684C26.1117 13.0698 26.1243 13.0753 26.1344 13.084C26.1446 13.0928 26.1518 13.1044 26.1552 13.1174C26.1585 13.1304 26.1579 13.144 26.1533 13.1566C26.1486 13.1692 26.1403 13.1801 26.1294 13.1878C26.1184 13.1955 26.1054 13.1997 26.092 13.1999C26.0757 13.201 26.0597 13.1957 26.0473 13.185C26.035 13.1744 26.0273 13.1593 26.0261 13.143Z" fill="#003D69"/>
<path d="M26.6544 12.4239C26.6256 12.501 26.5633 12.5317 26.4896 12.5414C26.4489 12.5469 26.4095 12.5593 26.3729 12.578C26.3439 12.591 26.3196 12.6128 26.3037 12.6404C26.2877 12.668 26.2809 12.6999 26.2841 12.7315C26.2884 12.7994 26.3248 12.8429 26.3865 12.8667C26.4583 12.8945 26.5279 12.8881 26.5872 12.8385C26.6531 12.7833 26.6444 12.6902 26.601 12.6495C26.641 12.6426 26.6785 12.6255 26.71 12.6C26.7429 12.5715 26.7653 12.5302 26.7924 12.4944L26.6544 12.4239ZM26.459 12.7813C26.4503 12.7801 26.4421 12.7764 26.4355 12.7706C26.4288 12.7649 26.4239 12.7573 26.4215 12.7489C26.419 12.7405 26.419 12.7315 26.4214 12.7231C26.4239 12.7147 26.4287 12.7071 26.4354 12.7013C26.442 12.6956 26.4502 12.6919 26.4589 12.6906C26.4676 12.6894 26.4764 12.6906 26.4844 12.6943C26.4924 12.6979 26.4992 12.7038 26.504 12.7112C26.5087 12.7186 26.5112 12.7272 26.5112 12.736C26.5102 12.7489 26.5041 12.7608 26.4943 12.7693C26.4846 12.7778 26.4719 12.7821 26.459 12.7813Z" fill="#003D69"/>
<path d="M20.6416 12.7235C20.7044 12.5587 20.5831 12.4613 20.4866 12.4613C20.39 12.4613 20.3103 12.5356 20.3103 12.6096C20.3103 12.6813 20.3732 12.738 20.447 12.738C20.447 12.738 20.4141 12.8027 20.3597 12.8312C20.4784 12.9239 20.8517 12.9074 20.984 12.5111H20.8174C20.812 12.5661 20.7072 12.7067 20.6416 12.7235ZM20.467 12.6534C20.4583 12.6522 20.4502 12.6484 20.4435 12.6427C20.4369 12.6369 20.4321 12.6294 20.4296 12.621C20.4271 12.6125 20.4272 12.6036 20.4296 12.5952C20.4321 12.5867 20.437 12.5792 20.4436 12.5735C20.4503 12.5677 20.4584 12.564 20.4671 12.5628C20.4758 12.5615 20.4847 12.5628 20.4926 12.5665C20.5006 12.5701 20.5074 12.576 20.5121 12.5834C20.5169 12.5908 20.5194 12.5993 20.5194 12.6081C20.5183 12.6209 20.5123 12.6328 20.5027 12.6413C20.493 12.6497 20.4798 12.6541 20.467 12.6534Z" fill="#003D69"/>
</svg>
